<?xml version="1.0" encoding="UTF-8" standalone="no"?>
<svg width="32px" height="23px" viewBox="0 0 32 23" version="1.1" xmlns="http://www.w3.org/2000/svg" xmlns:xlink="http://www.w3.org/1999/xlink">
    <!-- Generator: Sketch 3.6.1 (26313) - http://www.bohemiancoding.com/sketch -->
    <title>letter</title>
    <desc>Created with Sketch.</desc>
    <defs></defs>
    <g id="Page-1" stroke="none" stroke-width="1" fill="none" fill-rule="evenodd">
        <g id="letter" fill="#006E93">
            <g id="Group">
                <path d="M30.172,22.119 L0.888,22.119 C0.397,22.119 0,21.721 0,21.231 L0,1.827 C0,1.338 0.397,0.94 0.888,0.94 L30.172,0.94 C30.662,0.94 31.059,1.337 31.059,1.827 L31.059,21.231 C31.059,21.721 30.662,22.119 30.172,22.119 L30.172,22.119 Z M1.775,20.344 L29.284,20.344 L29.284,2.716 L1.775,2.716 L1.775,20.344 L1.775,20.344 Z" id="Shape"></path>
                <path d="M15.529,12.417 C15.358,12.417 15.188,12.368 15.04,12.27 L0.397,2.567 C-0.011,2.296 -0.124,1.746 0.148,1.338 C0.419,0.929 0.969,0.817 1.378,1.088 L15.529,10.466 L29.681,1.088 C30.088,0.817 30.64,0.929 30.91,1.338 C31.181,1.746 31.069,2.297 30.661,2.567 L16.02,12.269 C15.871,12.368 15.7,12.417 15.529,12.417 L15.529,12.417 Z" id="Shape"></path>
            </g>
        </g>
    </g>
</svg>