<?xml version="1.0" encoding="UTF-8" standalone="no"?>
<svg width="12px" height="13px" viewBox="0 0 12 13" version="1.1" xmlns="http://www.w3.org/2000/svg" xmlns:xlink="http://www.w3.org/1999/xlink">
    <!-- Generator: Sketch 3.6.1 (26313) - http://www.bohemiancoding.com/sketch -->
    <title>provider</title>
    <desc>Created with Sketch.</desc>
    <defs></defs>
    <g id="Page-1" stroke="none" stroke-width="1" fill="none" fill-rule="evenodd">
        <g id="provider" fill="#006E93">
            <g id="Group">
                <path d="M5.90488889,4.25951724 C5.21288889,4.25951724 4.64977778,4.82568966 4.64977778,5.525 C4.64977778,5.88317241 4.8,6.20593103 5.03733333,6.43589655 L5.03733333,12.7655517 L6.81555556,12.7655517 L6.81555556,6.39106897 C7.02844444,6.16468966 7.16,5.86075862 7.16,5.525 C7.16,4.82613793 6.59866667,4.25951724 5.90488889,4.25951724 L5.90488889,4.25951724 Z" id="Shape"></path>
                <path d="M5.88355556,0 C2.71733333,0 0.150222222,2.5887931 0.150222222,5.78231034 C0.150222222,7.81658621 1.19377778,9.60162069 2.76844444,10.6322069 C2.76844444,10.6322069 2.91333333,10.7007931 2.91333333,10.4524483 L2.91333333,9.6572069 C2.91333333,9.57024138 2.76844444,9.47924138 2.76844444,9.47924138 C1.72622222,8.58448276 1.05288889,7.27013793 1.05288889,5.78275862 C1.05288889,3.09131034 3.216,0.909103448 5.884,0.909103448 C8.552,0.909103448 10.716,3.09131034 10.716,5.78275862 C10.716,7.23024138 10.0768889,8.51724138 9.08355556,9.4102069 C9.08355556,9.4102069 8.93955556,9.53886207 8.93955556,9.64151724 L8.93955556,10.4430345 C8.93955556,10.6201034 9.08355556,10.582 9.08355556,10.582 C10.6115556,9.5437931 11.6177778,7.78117241 11.6177778,5.78275862 C11.6177778,2.5887931 9.04977778,0 5.88355556,0 L5.88355556,0 Z" id="Shape"></path>
                <path d="M5.90488889,1.92310345 C3.90933333,1.92310345 2.29066667,3.55527586 2.29066667,5.56848276 C2.29066667,6.94827586 3.05111111,8.14696552 4.17111111,8.76648276 C4.17111111,8.76648276 4.35644444,8.85793103 4.35644444,8.63424138 L4.35644444,7.83317241 C4.35644444,7.72110345 4.17111111,7.62472414 4.17111111,7.62472414 C3.59111111,7.12713793 3.216,6.39555172 3.216,5.56848276 C3.216,4.07034483 4.41955556,2.85641379 5.90488889,2.85641379 C7.39066667,2.85641379 8.59422222,4.07034483 8.59422222,5.56848276 C8.59422222,6.39286207 8.22088889,7.1222069 7.64533333,7.61934483 C7.64533333,7.61934483 7.49777778,7.72155172 7.49777778,7.81434483 L7.49777778,8.61675862 C7.49777778,8.78396552 7.64533333,8.76334483 7.64533333,8.76334483 C8.76266667,8.14293103 9.51955556,6.94558621 9.51955556,5.56893103 C9.51955556,3.55527586 7.90133333,1.92310345 5.90488889,1.92310345 L5.90488889,1.92310345 Z" id="Shape"></path>
            </g>
        </g>
    </g>
</svg>