<?xml version="1.0" encoding="UTF-8" standalone="no"?>
<svg width="17px" height="17px" viewBox="0 0 17 17" version="1.1" xmlns="http://www.w3.org/2000/svg" xmlns:xlink="http://www.w3.org/1999/xlink">
    <!-- Generator: Sketch 3.6.1 (26313) - http://www.bohemiancoding.com/sketch -->
    <title>tool</title>
    <desc>Created with Sketch.</desc>
    <defs></defs>
    <g id="Page-1" stroke="none" stroke-width="1" fill="none" fill-rule="evenodd">
        <g id="tool" fill="#006E93">
            <g id="Group">
                <path d="M13.9225763,16.9970781 C13.7849346,16.9970781 13.6524299,16.9433156 13.5534486,16.8468406 L13.4202555,16.7170031 L12.2169097,16.7519062 C11.7625701,16.7623719 11.3910592,16.4074437 11.3784548,15.9492406 L11.3604486,15.3021781 L10.7485545,15.3199219 C10.7408754,15.3201344 10.7329315,15.3202406 10.7249346,15.3202406 C10.2803396,15.3202406 9.92243925,14.9674375 9.91015265,14.5170437 L9.8923053,13.8703 L9.28035826,13.8880437 C9.27220249,13.8882562 9.2647352,13.8883625 9.25721495,13.8883625 C8.81235514,13.8883625 8.45424299,13.5355062 8.44190343,13.0850594 L8.40604984,11.7930594 C8.29520561,11.6800625 8.1008972,11.4956125 7.89202492,11.3027156 C7.68558879,11.4217687 7.45002492,11.4865812 7.20905919,11.4865812 C6.85041745,11.4865812 6.51020561,11.3473937 6.25123364,11.0946781 C6.24064174,11.0843719 6.23047352,11.0735875 6.22078193,11.0624312 C6.19520249,11.0328406 6.16745171,11.0000094 6.13933022,10.9653187 C5.93082866,10.9894906 5.72079128,11.0017094 5.51128349,11.0017094 C4.05209034,11.0017094 2.68043925,10.4292875 1.64889408,9.3897375 C-0.479124611,7.24550625 -0.479124611,3.756575 1.64889408,1.61229062 C2.68054517,0.5726875 4.05230218,0.0002125 5.51154829,0.0002125 C6.97079439,0.0002125 8.34249844,0.5726875 9.37409657,1.6122375 C10.6304019,2.8781 11.1897601,4.65635312 10.8963115,6.41298437 C11.0352243,6.62973437 11.1133396,6.88207812 11.1205421,7.14653437 C11.1267383,7.373325 11.0809813,7.59342187 10.9886199,7.79242812 L16.8019844,13.6595 C16.8969938,13.7554437 16.9519657,13.8840594 16.9557259,14.0192094 L16.9967165,15.4927906 C17.0179533,16.2727719 16.414215,16.9252 15.6507508,16.9475125 L13.9377227,16.9969187 C13.9326916,16.997025 13.9276075,16.9970781 13.9225763,16.9970781 L13.9225763,16.9970781 Z M13.62881,15.6481812 C13.7664517,15.6481812 13.8989564,15.7019969 13.9979377,15.7984719 L14.1311308,15.9283094 L15.6201931,15.8853312 C15.8006262,15.8800719 15.943352,15.7170844 15.9380031,15.5220625 L15.902838,14.259175 L10.0027788,8.30465937 C9.92312773,8.22422812 9.87122741,8.12036875 9.85454517,8.008275 L9.83426168,7.87153125 C9.81080062,7.71284687 9.85994704,7.55198437 9.96819626,7.4338875 C10.0311651,7.36514375 10.0644237,7.27339687 10.0617757,7.1757 C10.0591807,7.0807125 10.0219502,6.99263125 9.95702181,6.92765937 C9.82954829,6.80026562 9.77531776,6.6166125 9.81302492,6.44007812 C10.1300935,4.95645625 9.68539252,3.43192812 8.62339564,2.36177812 C7.79209034,1.52405 6.68693146,1.0627125 5.51149533,1.0627125 C4.33605919,1.0627125 3.23100623,1.52405 2.39959502,2.36177812 C0.681747664,4.09269687 0.681747664,6.90917187 2.39959502,8.6400375 C3.23090031,9.47781875 4.33595327,9.93910312 5.51133645,9.93910312 C5.79260436,9.93910312 6.07493146,9.91185 6.35063863,9.85824687 C6.57979439,9.81340937 6.81096262,9.92470625 6.91990031,10.1317344 C6.95040498,10.1897469 6.93944237,10.349175 7.19539564,10.3934281 C7.28103115,10.40825 7.37731153,10.3880625 7.43853271,10.3227187 L7.50711526,10.2446781 C7.60053583,10.1384281 7.73224611,10.0739875 7.87317134,10.0657 C8.01489097,10.0575187 8.15253271,10.1058094 8.25771028,10.2002656 C8.26830218,10.2098281 8.52081308,10.436725 8.7781433,10.6778594 C9.34195016,11.2061875 9.45305919,11.3316156 9.45994393,11.5824719 L9.49420872,12.8187969 L10.3917134,12.7927656 C10.533433,12.7883031 10.6686386,12.8408969 10.7707445,12.9376906 C10.8729564,13.0345375 10.9325358,13.1682 10.9364019,13.3091406 L10.962405,14.2507281 L11.8596978,14.2246969 C12.0014704,14.2201281 12.1366231,14.272775 12.238676,14.3696219 C12.3408879,14.4664156 12.4004673,14.600025 12.4043863,14.7409125 L12.4306012,15.6827656 L13.6133988,15.6484469 C13.6185888,15.6482344 13.6237259,15.6481812 13.62881,15.6481812 L13.62881,15.6481812 Z" id="Shape"></path>
                <path d="M4.54895639,6.3977375 C4.05309657,6.3977375 3.58705296,6.20335312 3.2366729,5.85028437 C2.51478193,5.1227375 2.51483489,3.93916562 3.2366729,3.21188437 C3.58705296,2.85881562 4.05320249,2.66427187 4.54911526,2.66427187 C5.04502804,2.66427187 5.51117757,2.8587625 5.86155763,3.2119375 C6.58334268,3.93921875 6.58323676,5.1227375 5.86139875,5.85007187 C5.51107165,6.20319375 5.04497508,6.3977375 4.54895639,6.3977375 L4.54895639,6.3977375 Z M4.54911526,3.726825 C4.33701246,3.726825 4.13751402,3.81017813 3.98732087,3.96153125 C3.67565421,4.27555313 3.67565421,4.7865625 3.98737383,5.10069063 C4.13746106,5.2519375 4.3369595,5.3352375 4.54895639,5.3352375 C4.76105919,5.3352375 4.96050467,5.25188438 5.11069782,5.10053125 C5.42241745,4.78640313 5.4224704,4.2755 5.11090966,3.96153125 C4.96076947,3.81017813 4.76121807,3.726825 4.54911526,3.726825 L4.54911526,3.726825 Z" id="Shape"></path>
                <path d="M14.4404143,15.0294875 C14.3045202,15.0294875 14.1685732,14.9773719 14.0650903,14.8730344 L9.36768847,10.1395969 C9.16135826,9.93166563 9.16209969,9.59533125 9.36938318,9.38830313 C9.57656075,9.18138125 9.91195327,9.18196563 10.1183364,9.39000312 L14.8157383,14.1234406 C15.0220685,14.3313719 15.0213271,14.6677063 14.8140436,14.8747344 C14.7107196,14.9779031 14.575567,15.0294875 14.4404143,15.0294875 L14.4404143,15.0294875 Z" id="Shape"></path>
            </g>
        </g>
    </g>
</svg>